<svg width="18" height="19" viewBox="0 0 18 19" fill="none" xmlns="http://www.w3.org/2000/svg">
<path opacity="0.5" d="M0.728027 4.91659C0.728027 3.34492 0.728027 2.55992 1.21636 2.07159C1.70469 1.58325 2.48969 1.58325 4.06136 1.58325C5.63303 1.58325 6.41803 1.58325 6.90636 2.07159C7.39469 2.55992 7.39469 3.34492 7.39469 4.91659C7.39469 6.48825 7.39469 7.27325 6.90636 7.76158C6.41803 8.24992 5.63303 8.24992 4.06136 8.24992C2.48969 8.24992 1.70469 8.24992 1.21636 7.76158C0.728027 7.27325 0.728027 6.48825 0.728027 4.91659ZM9.89469 14.0833C9.89469 12.5116 9.89469 11.7266 10.383 11.2383C10.8714 10.7499 11.6564 10.7499 13.228 10.7499C14.7997 10.7499 15.5847 10.7499 16.073 11.2383C16.5614 11.7266 16.5614 12.5116 16.5614 14.0833C16.5614 15.6549 16.5614 16.4399 16.073 16.9283C15.5847 17.4166 14.7997 17.4166 13.228 17.4166C11.6564 17.4166 10.8714 17.4166 10.383 16.9283C9.89469 16.4399 9.89469 15.6549 9.89469 14.0833Z" stroke="#29343D" stroke-width="1.25"/>
<path d="M0.728027 14.0833C0.728027 12.5116 0.728027 11.7266 1.21636 11.2383C1.70469 10.7499 2.48969 10.7499 4.06136 10.7499C5.63303 10.7499 6.41803 10.7499 6.90636 11.2383C7.39469 11.7266 7.39469 12.5116 7.39469 14.0833C7.39469 15.6549 7.39469 16.4399 6.90636 16.9283C6.41803 17.4166 5.63303 17.4166 4.06136 17.4166C2.48969 17.4166 1.70469 17.4166 1.21636 16.9283C0.728027 16.4399 0.728027 15.6549 0.728027 14.0833ZM9.89469 4.91659C9.89469 3.34492 9.89469 2.55992 10.383 2.07159C10.8714 1.58325 11.6564 1.58325 13.228 1.58325C14.7997 1.58325 15.5847 1.58325 16.073 2.07159C16.5614 2.55992 16.5614 3.34492 16.5614 4.91659C16.5614 6.48825 16.5614 7.27325 16.073 7.76158C15.5847 8.24992 14.7997 8.24992 13.228 8.24992C11.6564 8.24992 10.8714 8.24992 10.383 7.76158C9.89469 7.27325 9.89469 6.48825 9.89469 4.91659Z" stroke="#29343D" stroke-width="1.25"/>
</svg>
