<svg width="21" height="21" viewBox="0 0 21 21" fill="none" xmlns="http://www.w3.org/2000/svg">
<g opacity="0.8">
<path opacity="0.5" d="M2.33643 10.5C2.33643 6.57163 2.33643 4.60746 3.55643 3.38663C4.77809 2.16663 6.74143 2.16663 10.6698 2.16663C14.5981 2.16663 16.5623 2.16663 17.7823 3.38663C19.0031 4.60829 19.0031 6.57163 19.0031 10.5C19.0031 14.4283 19.0031 16.3925 17.7823 17.6125C16.5631 18.8333 14.5981 18.8333 10.6698 18.8333C6.74143 18.8333 4.77726 18.8333 3.55643 17.6125C2.33643 16.3933 2.33643 14.4283 2.33643 10.5Z" stroke="#29343D" stroke-width="1.25"/>
<path d="M9.00309 12.1666C9.44512 12.1666 9.86904 12.3422 10.1816 12.6548C10.4942 12.9673 10.6698 13.3913 10.6698 13.8333C10.6698 14.2753 10.4942 14.6992 10.1816 15.0118C9.86904 15.3244 9.44512 15.5 9.00309 15.5C8.56106 15.5 8.13714 15.3244 7.82458 15.0118C7.51202 14.6992 7.33643 14.2753 7.33643 13.8333C7.33643 13.3913 7.51202 12.9673 7.82458 12.6548C8.13714 12.3422 8.56106 12.1666 9.00309 12.1666Z" stroke="#29343D" stroke-width="1.25"/>
<path d="M10.6696 7.16659C10.6696 6.24611 11.4158 5.49992 12.3363 5.49992C13.2567 5.49992 14.0029 6.24611 14.0029 7.16659C14.0029 8.08706 13.2567 8.83325 12.3363 8.83325C11.4158 8.83325 10.6696 8.08706 10.6696 7.16659Z" stroke="#29343D" stroke-width="1.25"/>
<path d="M12.3364 13.8333H16.5031M9.00309 7.16663H4.83643M4.83643 13.8333H5.66976M16.5031 7.16663H15.6698" stroke="#29343D" stroke-width="1.25" stroke-linecap="round"/>
</g>
</svg>
