<svg width="19" height="19" viewBox="0 0 19 19" fill="none" xmlns="http://www.w3.org/2000/svg">
<path opacity="0.5" d="M1.30387 10.2984C0.987207 8.10091 0.828874 7.00175 1.27971 6.06258C1.73054 5.12341 2.68887 4.55175 4.60637 3.41008L5.76054 2.72258C7.50054 1.68508 8.37221 1.16675 9.33387 1.16675C10.2955 1.16675 11.1664 1.68508 12.9072 2.72258L14.0614 3.41008C15.978 4.55175 16.9372 5.12341 17.388 6.06258C17.8389 7.00175 17.6797 8.10091 17.363 10.2984L17.1314 11.9126C16.7255 14.7359 16.5222 16.1467 15.543 16.9901C14.5639 17.8334 13.128 17.8334 10.2555 17.8334H8.41221C5.53971 17.8334 4.10387 17.8334 3.12471 16.9901C2.14554 16.1467 1.94221 14.7359 1.53637 11.9126L1.30387 10.2984Z" stroke="#29343D" stroke-width="1.25"/>
<path d="M11.834 14.5001H6.83398" stroke="#29343D" stroke-width="1.25" stroke-linecap="round"/>
</svg>
