<svg width="21" height="21" viewBox="0 0 21 21" fill="none" xmlns="http://www.w3.org/2000/svg">
<g opacity="0.8">
<path d="M17.7304 11.0391L18.1613 9.42914C18.6646 7.54997 18.9171 6.61081 18.7279 5.79747C18.578 5.15539 18.241 4.57219 17.7596 4.12164C17.1504 3.55081 16.2104 3.29914 14.3313 2.79581C12.4521 2.29164 11.5121 2.03997 10.6996 2.22914C10.0575 2.37907 9.47431 2.71605 9.02377 3.19747C8.5346 3.71914 8.2796 4.48331 7.90043 5.87164L7.6971 6.62581L7.26627 8.23581C6.7621 10.115 6.51043 11.0541 6.6996 11.8675C6.84953 12.5096 7.18651 13.0928 7.66793 13.5433C8.2771 14.1141 9.2171 14.3658 11.0963 14.87C12.7896 15.3233 13.7204 15.5725 14.4829 15.4783C14.5663 15.4678 14.6479 15.4533 14.7279 15.435C15.3698 15.2855 15.953 14.9491 16.4038 14.4683C16.9746 13.8583 17.2263 12.9183 17.7304 11.0391Z" stroke="#29343D" stroke-width="1.25"/>
<path opacity="0.5" d="M14.4831 15.4784C14.3089 16.012 14.0028 16.4929 13.5931 16.8767C12.9839 17.4475 12.0439 17.6992 10.1648 18.2025C8.2856 18.7058 7.3456 18.9584 6.5331 18.7684C5.89111 18.6187 5.30792 18.282 4.85726 17.8008C4.28643 17.1917 4.03393 16.2517 3.5306 14.3725L3.09976 12.7625C2.5956 10.8833 2.34393 9.94335 2.5331 9.13085C2.68302 8.48876 3.02001 7.90556 3.50143 7.45502C4.1106 6.88418 5.0506 6.63252 6.92976 6.12835C7.28421 6.03279 7.60782 5.94696 7.9006 5.87085" stroke="#29343D" stroke-width="1.25"/>
<path d="M10.6182 8.83325L14.6432 9.91158" stroke="#29343D" stroke-width="1.25" stroke-linecap="round"/>
<path opacity="0.5" d="M9.9707 11.2483L12.3857 11.895" stroke="#29343D" stroke-width="1.25" stroke-linecap="round"/>
</g>
</svg>
