<svg width="20" height="21" viewBox="0 0 20 21" fill="none" xmlns="http://www.w3.org/2000/svg">
<g opacity="0.8">
<path d="M4.149 8.57087C2.494 7.90921 1.6665 7.57837 1.6665 7.16671C1.6665 6.75504 2.494 6.42504 4.149 5.76254L6.489 4.82671C8.144 4.16421 8.97234 3.83337 9.99984 3.83337C11.0273 3.83337 11.8557 4.16421 13.5107 4.82671L15.8507 5.76254C17.5057 6.42421 18.3332 6.75504 18.3332 7.16671C18.3332 7.57837 17.5057 7.90837 15.8507 8.57087L13.5107 9.50754C11.8557 10.1692 11.0273 10.5 9.99984 10.5C8.97234 10.5 8.144 10.1692 6.489 9.50754L4.149 8.57087Z" stroke="white" stroke-width="1.25"/>
<path opacity="0.5" d="M4.80484 8.83337L4.149 9.09587C2.494 9.75754 1.6665 10.0892 1.6665 10.5C1.6665 10.9109 2.494 11.2417 4.149 11.9042L6.489 12.8409C8.144 13.5025 8.97234 13.8334 9.99984 13.8334C11.0273 13.8334 11.8557 13.5025 13.5107 12.8409L15.8507 11.9042C17.5057 11.2425 18.3332 10.9109 18.3332 10.5C18.3332 10.0892 17.5057 9.75837 15.8507 9.09587L15.1948 8.83337M4.80484 12.1667L4.149 12.4292C2.494 13.0909 1.6665 13.4225 1.6665 13.8334C1.6665 14.2442 2.494 14.575 4.149 15.2375L6.489 16.1742C8.144 16.8359 8.97234 17.1667 9.99984 17.1667C11.0273 17.1667 11.8557 16.8359 13.5107 16.1734L15.8507 15.2375C17.5057 14.5759 18.3332 14.245 18.3332 13.8334C18.3332 13.4225 17.5057 13.0917 15.8507 12.4292L15.1948 12.1667" stroke="white" stroke-width="1.25"/>
</g>
</svg>
