<svg width="21" height="21" viewBox="0 0 21 21" fill="none" xmlns="http://www.w3.org/2000/svg">
<g opacity="0.8">
<path opacity="0.5" d="M15.1852 8.83325H11.0186" stroke="#29343D" stroke-width="1.25" stroke-linecap="round"/>
<path d="M1.85205 6.29163C1.85205 5.55579 1.85205 5.18829 1.91038 4.88163C2.03474 4.22316 2.35466 3.61746 2.82843 3.14355C3.30219 2.66964 3.90779 2.34952 4.56622 2.22496C4.87372 2.16663 5.24205 2.16663 5.97705 2.16663C6.29872 2.16663 6.46038 2.16663 6.61538 2.18079C7.28292 2.24348 7.91604 2.50602 8.43205 2.93413C8.55205 3.03329 8.66538 3.14663 8.89372 3.37496L9.35205 3.83329C10.0321 4.51329 10.3721 4.85329 10.7787 5.07913C11.0022 5.2037 11.2394 5.30213 11.4854 5.37246C11.9337 5.49996 12.4146 5.49996 13.3754 5.49996H13.6871C15.8804 5.49996 16.9779 5.49996 17.6904 6.14163C17.7565 6.19996 17.8187 6.26218 17.8771 6.32829C18.5187 7.04079 18.5187 8.13829 18.5187 10.3316V12.1666C18.5187 15.3091 18.5187 16.8808 17.542 17.8566C16.5654 18.8325 14.9946 18.8333 11.8521 18.8333H8.51872C5.37622 18.8333 3.80455 18.8333 2.82872 17.8566C1.85288 16.88 1.85205 15.3091 1.85205 12.1666V6.29163Z" stroke="#29343D" stroke-width="1.25"/>
</g>
</svg>
