<svg width="11" height="12" viewBox="0 0 11 12" fill="none" xmlns="http://www.w3.org/2000/svg">
<g clip-path="url(#clip0_1_3837)">
<g clip-path="url(#clip1_1_3837)">
<mask id="mask0_1_3837" style="mask-type:luminance" maskUnits="userSpaceOnUse" x="0" y="0" width="11" height="12">
<path d="M10.9609 11.1837V0.460693L0.237898 0.460693V11.1837H10.9609Z" fill="white"/>
</mask>
<g mask="url(#mask0_1_3837)">
<path d="M8.23786 11.0123L8.59155 10.6611C8.702 10.5505 8.76286 10.4035 8.76286 10.2463C8.76286 10.0892 8.702 9.94194 8.59155 9.8314L4.58459 5.82462L8.596 1.8132C8.70645 1.70283 8.76722 1.55559 8.76722 1.39849C8.76722 1.24139 8.70645 1.09406 8.596 0.983598L8.24448 0.632263C8.0159 0.403503 7.64355 0.403503 7.41497 0.632263L2.62173 5.40833C2.51136 5.5187 2.43359 5.66576 2.43359 5.82426V5.8261C2.43359 5.98327 2.51145 6.13035 2.62173 6.24072L7.40199 11.0123C7.51235 11.1229 7.66387 11.1836 7.82097 11.1837C7.97816 11.1837 8.12758 11.1229 8.23786 11.0123Z" fill="white"/>
</g>
</g>
</g>
<defs>
<clipPath id="clip0_1_3837">
<rect width="10.723" height="10.723" fill="white" transform="translate(0.236328 0.460693)"/>
</clipPath>
<clipPath id="clip1_1_3837">
<rect width="10.723" height="10.723" fill="white" transform="translate(0.236328 0.460693)"/>
</clipPath>
</defs>
</svg>
